<svg xmlns="http://www.w3.org/2000/svg" xmlns:xlink="http://www.w3.org/1999/xlink" width="4593" height="826" viewBox="0 0 4593 826">
  <defs>
    <clipPath id="clip-svg_make">
      <rect width="4593" height="826"/>
    </clipPath>
  </defs>
  <g id="svg_make" data-name="svg make" clip-path="url(#clip-svg_make)">
    <rect width="4593" height="826" fill="rgba(255,255,255,0)"/>
    <g id="Group_35" data-name="Group 35" transform="translate(-1334 -799)">
      <path id="Path_9" data-name="Path 9" d="M195.741-1222.564l60.215-110.919H541.706" transform="translate(2331.782 2335.392)" fill="none" stroke="#ff9a19" stroke-width="8"/>
      <path id="Path_10" data-name="Path 10" d="M195.741-1222.564l60.215-110.919H541.706" transform="translate(1828.614 2335.392)" fill="none" stroke="#f7295e" stroke-width="8"/>
      <path id="Path_12" data-name="Path 12" d="M534.414-1333.483l-58.945,90.022H195.741" transform="translate(1736.059 2655.639)" fill="none" stroke="#a41be4" stroke-width="8"/>
      <path id="Path_13" data-name="Path 13" d="M533.915-1333.483l-58.859,89.89H195.741" transform="translate(2195.226 2650.028)" fill="none" stroke="#f7295e" stroke-width="8"/>
      <text id="Inauguration_6:00_-_7:00_pm" data-name="Inauguration
6:00 - 7:00 pm" transform="translate(2084.978 941)" fill="#160e0e" font-size="29" font-family="Montserrat-Medium, Montserrat" font-weight="500"><tspan x="0" y="0">Inauguration</tspan><tspan font-family="Montserrat-Bold, Montserrat" font-weight="700"><tspan x="0" y="37">6:00 - 7:00 pm</tspan></tspan></text>
      <text id="Attendance_9:00_-_9:30_pm" data-name="Attendance
9:00 - 9:30 pm" transform="translate(2604.825 941)" fill="#160e0e" font-size="29" font-family="Montserrat-Medium, Montserrat" font-weight="500"><tspan x="0" y="0">Attendance</tspan><tspan font-family="Montserrat-Bold, Montserrat" font-weight="700"><tspan x="0" y="37">9:00 - 9:30 pm</tspan></tspan></text>
      <text id="Hackathon_Begins_7:00_-_9:00_pm" data-name="Hackathon Begins
7:00 - 9:00 pm" transform="translate(1935.141 1471)" fill="#160e0e" font-size="30" font-family="Montserrat-Medium, Montserrat" font-weight="500"><tspan x="0" y="0">Hackathon Begins</tspan><tspan font-family="Montserrat-Bold, Montserrat" font-weight="700"><tspan x="0" y="38">7:00 - 9:00 pm</tspan></tspan></text>
      <text id="Dinner_9:30_-_10:30_pm" data-name="Dinner
9:30 - 10:30 pm" transform="translate(2388.894 1471)" fill="#160e0e" font-size="30" font-family="Montserrat-Medium, Montserrat" font-weight="500"><tspan x="0" y="0">Dinner</tspan><tspan font-family="Montserrat-Bold, Montserrat" font-weight="700"><tspan x="0" y="38">9:30 - 10:30 pm</tspan></tspan></text>
      <g id="Group_20" data-name="Group 20" transform="translate(2191.46 1138.098)">
        <ellipse id="Ellipse_6" data-name="Ellipse 6" cx="77.5" cy="76.5" rx="77.5" ry="76.5" transform="translate(-0.46 -0.098)" fill="#a41be4"/>
        <path id="laptop" d="M1.465,73.264H63.63A1.465,1.465,0,0,0,65.094,71.8V70.481c0-.022.007-.042.007-.065a1.457,1.457,0,0,0-.159-.664l-6.357-16V23.986a1.465,1.465,0,0,0-1.465-1.465H7.974a1.465,1.465,0,0,0-1.465,1.465V53.751L.1,69.876a1.473,1.473,0,0,0-.066.22c0,.019-.007.038-.011.057A1.439,1.439,0,0,0,0,70.411s0,0,0,.006V71.8A1.465,1.465,0,0,0,1.465,73.264Zm24.783-4.727,1.34-4.144h9.919l1.34,4.144ZM10.816,26.258H54.279v25.5H10.816Z" transform="translate(45.07 29.303)" fill="#fff"/>
      </g>
      <g id="Group_22" data-name="Group 22" transform="translate(2679.026 1138.098)">
        <ellipse id="Ellipse_6-2" data-name="Ellipse 6" cx="76" cy="76.5" rx="76" ry="76.5" transform="translate(-0.026 -0.098)" fill="#f7295e"/>
        <g id="snacks-for-watch-sportive-game-of-rugby" transform="translate(49.413 47.762)">
          <g id="Group_10" data-name="Group 10" transform="translate(0 0)">
            <path id="Path_27" data-name="Path 27" d="M4.718,66.665H20.275a13.192,13.192,0,0,1-4.417-6.288,6.062,6.062,0,0,1-4.4-6.115c0-3.178,2.078-5.8,4.75-6.175,1.805-4.272,5.3-7.175,9.308-7.178l1.218-15.182h1.709V22.259H14.849c-.041-5.242,3.615-9.546,9.015-9.574a1.111,1.111,0,0,0,0-2.22c-6.583.034-11.3,5.341-11.234,11.793H0v3.468H1.706Z" transform="translate(0 -10.465)" fill="#fff"/>
            <path id="Path_28" data-name="Path 28" d="M145.924,405.567a6.413,6.413,0,0,0,2.03.345H169.27c3.2,0,6-2.415,7.48-5.977H140.474A9.523,9.523,0,0,0,145.924,405.567Z" transform="translate(-122.432 -349.912)" fill="#fff"/>
            <path id="Path_29" data-name="Path 29" d="M150.041,268.293h28.983c-1.554-3.085-4.149-5.113-7.088-5.113H150.62c-.058,0-.113.01-.169.012-2.868.077-5.4,2.077-6.917,5.1h6.507Z" transform="translate(-125.099 -230.722)" fill="#fff"/>
            <path id="Path_30" data-name="Path 30" d="M109.047,318.691h-.764a2.86,2.86,0,0,0-.29.037,2.825,2.825,0,0,0-1.145.375,4.357,4.357,0,0,0-1.946,3.8,4.435,4.435,0,0,0,1.736,3.655,2.94,2.94,0,0,0,1.118.488,2.69,2.69,0,0,0,.528.066h38.651a2.661,2.661,0,0,0,.527-.066,2.92,2.92,0,0,0,1.118-.487,4.432,4.432,0,0,0,1.737-3.656,4.355,4.355,0,0,0-1.949-3.8,2.844,2.844,0,0,0-1.145-.374,2.8,2.8,0,0,0-.288-.037H109.047Zm1.394,2.581a5.4,5.4,0,0,1,4.269.126,8.726,8.726,0,0,1,1.227.7c1.023.642,2.121,1.274,3.389.429a6.217,6.217,0,0,1,2.2-1.141,5.692,5.692,0,0,1,4.361.674c2.379,1.578,4.45,2,6.929.339,1.054-.707,2.336-1.615,3.687-1.546a9.762,9.762,0,0,1,4.441,1.506c1.71,1,2.669.98,4.054-.055.212-.159.431-.336.666-.542a.9.9,0,0,1,1.111-.072,1.089,1.089,0,0,1,.187.134.79.79,0,0,1,.111,1.059.834.834,0,0,1-.125.164l-.088.072a10.187,10.187,0,0,1-1.878,1.33,4.2,4.2,0,0,1-4.461-.233c-2.148-1.252-4.039-2.1-6.3-.58a8.442,8.442,0,0,1-3.971,1.764,7.042,7.042,0,0,1-4.7-1.4c-2.743-1.817-4.35-.151-6.86.837-1.233.484-2.064-.139-2.907-.773a6.024,6.024,0,0,0-1.267-.8c-1.865-.772-3.171-.619-4.362.286a7.952,7.952,0,0,0-1.455,1.491.843.843,0,0,1-.223.192.766.766,0,0,1-.133.072.8.8,0,0,1-.911-.345.97.97,0,0,1-.066-1.1c.02-.034.025-.067.049-.1.237-.305.482-.593.733-.858.075-.078.154-.139.229-.214A6.615,6.615,0,0,1,110.441,321.272Z" transform="translate(-91.429 -279.103)" fill="#fff"/>
          </g>
        </g>
      </g>
      <g id="Group_21" data-name="Group 21" transform="translate(2435.772 1138.098)">
        <circle id="Ellipse_6-3" data-name="Ellipse 6" cx="76.5" cy="76.5" r="76.5" transform="translate(0.228 -0.098)" fill="#ff9a19"/>
        <g id="file" transform="translate(60.23 47.814)">
          <path id="Path_31" data-name="Path 31" d="M272.5,15v9.522h9.522Z" transform="translate(-243.255 -12.96)" fill="#fff"/>
          <path id="Path_32" data-name="Path 32" d="M82.665,15.643V0H57.5V56.451H98.308V15.643Zm8.842,31.626H64.3V43.188H91.506Zm0-9.522H64.3V33.666H91.506Zm0-9.522H64.3V24.145H91.506Z" transform="translate(-57.5)" fill="#fff"/>
        </g>
      </g>
      <path id="Path_41" data-name="Path 41" d="M195.741-1222.564l60.215-110.919H541.706" transform="translate(2799.159 2337.357)" fill="none" stroke="#a41be4" stroke-width="8"/>
      <text id="Hack_Like_A_Girl_10:30_pm" data-name="Hack Like A Girl
10:30 pm" transform="translate(3057.178 941)" fill="#160e0e" font-size="29" font-family="Montserrat-Medium, Montserrat" font-weight="500"><tspan x="0" y="0">Hack Like A Girl</tspan><tspan font-family="Montserrat-Bold, Montserrat" font-weight="700"><tspan x="0" y="37">10:30 pm</tspan></tspan></text>
      <path id="Path_44" data-name="Path 44" d="M533.915-1333.483l-58.859,89.89H195.741" transform="translate(2667.571 2659.082)" fill="none" stroke="#ff9a19" stroke-width="8"/>
      <text id="Midnight_Snacks_and_Review_1_1:00_am" data-name="Midnight Snacks and
Review 1
1:00 am" transform="translate(2863.986 1470)" fill="#160e0e" font-size="29" font-family="Montserrat-Medium, Montserrat" font-weight="500"><tspan x="0" y="0">Midnight Snacks and</tspan><tspan x="0" y="38">Review 1</tspan><tspan font-family="Montserrat-Bold, Montserrat" font-weight="700"><tspan x="0" y="76">1:00 am</tspan></tspan></text>
      <g id="Group_23" data-name="Group 23" transform="translate(2921.223 1138.098)">
        <ellipse id="Ellipse_10" data-name="Ellipse 10" cx="77" cy="77.5" rx="77" ry="77.5" transform="translate(-0.223 -0.098)" fill="#a41be4"/>
        <path id="laptop-2" data-name="laptop" d="M1.465,73.264H63.63A1.465,1.465,0,0,0,65.094,71.8V70.481c0-.022.007-.042.007-.065a1.457,1.457,0,0,0-.159-.664l-6.357-16V23.986a1.465,1.465,0,0,0-1.465-1.465H7.974a1.465,1.465,0,0,0-1.465,1.465V53.751L.1,69.876a1.473,1.473,0,0,0-.066.22c0,.019-.007.038-.011.057A1.439,1.439,0,0,0,0,70.411s0,0,0,.006V71.8A1.465,1.465,0,0,0,1.465,73.264Zm24.783-4.727,1.34-4.144h9.919l1.34,4.144ZM10.816,26.258H54.279v25.5H10.816Z" transform="translate(44.185 29.303)" fill="#fff"/>
      </g>
      <g id="Group_24" data-name="Group 24" transform="translate(3143.253 1145.109)">
        <ellipse id="Ellipse_11" data-name="Ellipse 11" cx="76.5" cy="77.5" rx="76.5" ry="77.5" transform="translate(-0.253 -0.109)" fill="#ff9a19"/>
        <g id="snacks-for-watch-sportive-game-of-rugby-2" data-name="snacks-for-watch-sportive-game-of-rugby" transform="translate(48.858 49.242)">
          <g id="Group_10-2" data-name="Group 10" transform="translate(0 0)">
            <path id="Path_27-2" data-name="Path 27" d="M4.718,66.665H20.275a13.192,13.192,0,0,1-4.417-6.288,6.062,6.062,0,0,1-4.4-6.115c0-3.178,2.078-5.8,4.75-6.175,1.805-4.272,5.3-7.175,9.308-7.178l1.218-15.182h1.709V22.259H14.849c-.041-5.242,3.615-9.546,9.015-9.574a1.111,1.111,0,0,0,0-2.22c-6.583.034-11.3,5.341-11.234,11.793H0v3.468H1.706Z" transform="translate(0 -10.465)" fill="#fff"/>
            <path id="Path_28-2" data-name="Path 28" d="M145.924,405.567a6.413,6.413,0,0,0,2.03.345H169.27c3.2,0,6-2.415,7.48-5.977H140.474A9.523,9.523,0,0,0,145.924,405.567Z" transform="translate(-122.432 -349.912)" fill="#fff"/>
            <path id="Path_29-2" data-name="Path 29" d="M150.041,268.293h28.983c-1.554-3.085-4.149-5.113-7.088-5.113H150.62c-.058,0-.113.01-.169.012-2.868.077-5.4,2.077-6.917,5.1h6.507Z" transform="translate(-125.099 -230.722)" fill="#fff"/>
            <path id="Path_30-2" data-name="Path 30" d="M109.047,318.691h-.764a2.86,2.86,0,0,0-.29.037,2.825,2.825,0,0,0-1.145.375,4.357,4.357,0,0,0-1.946,3.8,4.435,4.435,0,0,0,1.736,3.655,2.94,2.94,0,0,0,1.118.488,2.69,2.69,0,0,0,.528.066h38.651a2.661,2.661,0,0,0,.527-.066,2.92,2.92,0,0,0,1.118-.487,4.432,4.432,0,0,0,1.737-3.656,4.355,4.355,0,0,0-1.949-3.8,2.844,2.844,0,0,0-1.145-.374,2.8,2.8,0,0,0-.288-.037H109.047Zm1.394,2.581a5.4,5.4,0,0,1,4.269.126,8.726,8.726,0,0,1,1.227.7c1.023.642,2.121,1.274,3.389.429a6.217,6.217,0,0,1,2.2-1.141,5.692,5.692,0,0,1,4.361.674c2.379,1.578,4.45,2,6.929.339,1.054-.707,2.336-1.615,3.687-1.546a9.762,9.762,0,0,1,4.441,1.506c1.71,1,2.669.98,4.054-.055.212-.159.431-.336.666-.542a.9.9,0,0,1,1.111-.072,1.089,1.089,0,0,1,.187.134.79.79,0,0,1,.111,1.059.834.834,0,0,1-.125.164l-.088.072a10.187,10.187,0,0,1-1.878,1.33,4.2,4.2,0,0,1-4.461-.233c-2.148-1.252-4.039-2.1-6.3-.58a8.442,8.442,0,0,1-3.971,1.764,7.042,7.042,0,0,1-4.7-1.4c-2.743-1.817-4.35-.151-6.86.837-1.233.484-2.064-.139-2.907-.773a6.024,6.024,0,0,0-1.267-.8c-1.865-.772-3.171-.619-4.362.286a7.952,7.952,0,0,0-1.455,1.491.843.843,0,0,1-.223.192.766.766,0,0,1-.133.072.8.8,0,0,1-.911-.345.97.97,0,0,1-.066-1.1c.02-.034.025-.067.049-.1.237-.305.482-.593.733-.858.075-.078.154-.139.229-.214A6.615,6.615,0,0,1,110.441,321.272Z" transform="translate(-91.429 -279.103)" fill="#fff"/>
          </g>
        </g>
      </g>
      <path id="Path_11" data-name="Path 11" d="M525.691-1333.483l-57.427,87.7H195.741" transform="translate(1272.592 2657.754)" fill="none" stroke="#ff9a19" stroke-width="8"/>
      <text id="Registrations_Begin_5:30_-_6:00_pm" data-name="Registrations Begin
5:30 - 6:00 pm" transform="translate(1468.758 1470)" fill="#160e0e" font-size="29" font-family="Montserrat-Medium, Montserrat" font-weight="500"><tspan x="0" y="0">Registrations Begin</tspan><tspan font-family="Montserrat-Bold, Montserrat" font-weight="700"><tspan x="0" y="37">5:30 - 6:00 pm</tspan></tspan></text>
      <g id="Group_18" data-name="Group 18" transform="translate(1706.009 1138.098)">
        <ellipse id="Ellipse_6-4" data-name="Ellipse 6" cx="76" cy="76.5" rx="76" ry="76.5" transform="translate(-0.009 -0.098)" fill="#ff9a19"/>
        <g id="pencil-edit-button" transform="translate(51.461 50.964)">
          <path id="Path_23" data-name="Path 23" d="M31.378,9.669,41.643,19.934,15.66,45.917,5.4,35.652ZM49.432,7.193,44.854,2.616a4.543,4.543,0,0,0-6.417,0L34.052,7,44.317,17.265l5.115-5.115A3.5,3.5,0,0,0,49.432,7.193ZM.029,50.08a1.168,1.168,0,0,0,1.413,1.39L12.881,48.7,2.622,38.432Z" transform="translate(-0.001 -1.289)" fill="#fff"/>
        </g>
      </g>
      <g id="Group_19" data-name="Group 19" transform="translate(1948.206 1138.098)">
        <circle id="Ellipse_6-5" data-name="Ellipse 6" cx="76.5" cy="76.5" r="76.5" transform="translate(-0.206 -0.098)" fill="#f7295e"/>
      </g>
      <g id="Group_33" data-name="Group 33" transform="translate(5087.172 1144.051)">
        <ellipse id="Ellipse_19" data-name="Ellipse 19" cx="77.5" cy="76.5" rx="77.5" ry="76.5" transform="translate(-0.172 -0.051)" fill="#a41be4"/>
        <g id="chat" transform="translate(50.986 49.845)">
          <path id="Path_20" data-name="Path 20" d="M38.785,55.368A11.174,11.174,0,1,0,27.611,44.193,11.186,11.186,0,0,0,38.785,55.368Z" transform="translate(-23.533 -28.125)" fill="#fff"/>
          <path id="Path_21" data-name="Path 21" d="M28.759,204.782A3.546,3.546,0,0,0,25.378,202H5.327a3.546,3.546,0,0,0-3.381,2.783L.167,213.8A4.613,4.613,0,0,0,1.8,218.051c.317.238,7.828,5.832,13.556,5.832s13.24-5.594,13.557-5.832a4.612,4.612,0,0,0,1.629-4.253Z" transform="translate(-0.102 -172.057)" fill="#fff"/>
          <path id="Path_22" data-name="Path 22" d="M173.923,0H149.364a2.907,2.907,0,0,0-2.082.875A1.305,1.305,0,0,0,146.94,2a1.327,1.327,0,0,0,.814.966c4.975,2.376,7.828,7.151,7.828,13.1a16.414,16.414,0,0,1-2.208,7.793,1.64,1.64,0,0,0-.134,1.575,1.2,1.2,0,0,0,1.1.549,2.358,2.358,0,0,0,.44-.044,1.514,1.514,0,0,1,1.418,1.492v2.492c0,1.359.78,1.967,1.552,1.967a2.218,2.218,0,0,0,1.381-.566l5.124-4.149a6.677,6.677,0,0,1,3.485-1.238h6.181a3.032,3.032,0,0,0,3.03-2.953V2.979A3.045,3.045,0,0,0,173.923,0Z" transform="translate(-125.157)" fill="#fff"/>
        </g>
      </g>
      <g id="Group_32" data-name="Group 32" transform="translate(4842.86 1144.051)">
        <circle id="Ellipse_18" data-name="Ellipse 18" cx="76.5" cy="76.5" r="76.5" transform="translate(0.14 -0.051)" fill="#f7295e"/>
        <g id="snacks-for-watch-sportive-game-of-rugby-3" data-name="snacks-for-watch-sportive-game-of-rugby" transform="translate(52.332 38.321)">
          <g id="Group_10-3" data-name="Group 10" transform="translate(0 0)">
            <path id="Path_27-3" data-name="Path 27" d="M4.718,66.665H20.275a13.192,13.192,0,0,1-4.417-6.288,6.062,6.062,0,0,1-4.4-6.115c0-3.178,2.078-5.8,4.75-6.175,1.805-4.272,5.3-7.175,9.308-7.178l1.218-15.182h1.709V22.259H14.849c-.041-5.242,3.615-9.546,9.015-9.574a1.111,1.111,0,0,0,0-2.22c-6.583.034-11.3,5.341-11.234,11.793H0v3.468H1.706Z" transform="translate(0 -10.465)" fill="#fff"/>
            <path id="Path_28-3" data-name="Path 28" d="M145.924,405.567a6.413,6.413,0,0,0,2.03.345H169.27c3.2,0,6-2.415,7.48-5.977H140.474A9.523,9.523,0,0,0,145.924,405.567Z" transform="translate(-122.432 -349.912)" fill="#fff"/>
            <path id="Path_29-3" data-name="Path 29" d="M150.041,268.293h28.983c-1.554-3.085-4.149-5.113-7.088-5.113H150.62c-.058,0-.113.01-.169.012-2.868.077-5.4,2.077-6.917,5.1h6.507Z" transform="translate(-125.099 -230.722)" fill="#fff"/>
            <path id="Path_30-3" data-name="Path 30" d="M109.047,318.691h-.764a2.86,2.86,0,0,0-.29.037,2.825,2.825,0,0,0-1.145.375,4.357,4.357,0,0,0-1.946,3.8,4.435,4.435,0,0,0,1.736,3.655,2.94,2.94,0,0,0,1.118.488,2.69,2.69,0,0,0,.528.066h38.651a2.661,2.661,0,0,0,.527-.066,2.92,2.92,0,0,0,1.118-.487,4.432,4.432,0,0,0,1.737-3.656,4.355,4.355,0,0,0-1.949-3.8,2.844,2.844,0,0,0-1.145-.374,2.8,2.8,0,0,0-.288-.037H109.047Zm1.394,2.581a5.4,5.4,0,0,1,4.269.126,8.726,8.726,0,0,1,1.227.7c1.023.642,2.121,1.274,3.389.429a6.217,6.217,0,0,1,2.2-1.141,5.692,5.692,0,0,1,4.361.674c2.379,1.578,4.45,2,6.929.339,1.054-.707,2.336-1.615,3.687-1.546a9.762,9.762,0,0,1,4.441,1.506c1.71,1,2.669.98,4.054-.055.212-.159.431-.336.666-.542a.9.9,0,0,1,1.111-.072,1.089,1.089,0,0,1,.187.134.79.79,0,0,1,.111,1.059.834.834,0,0,1-.125.164l-.088.072a10.187,10.187,0,0,1-1.878,1.33,4.2,4.2,0,0,1-4.461-.233c-2.148-1.252-4.039-2.1-6.3-.58a8.442,8.442,0,0,1-3.971,1.764,7.042,7.042,0,0,1-4.7-1.4c-2.743-1.817-4.35-.151-6.86.837-1.233.484-2.064-.139-2.907-.773a6.024,6.024,0,0,0-1.267-.8c-1.865-.772-3.171-.619-4.362.286a7.952,7.952,0,0,0-1.455,1.491.843.843,0,0,1-.223.192.766.766,0,0,1-.133.072.8.8,0,0,1-.911-.345.97.97,0,0,1-.066-1.1c.02-.034.025-.067.049-.1.237-.305.482-.593.733-.858.075-.078.154-.139.229-.214A6.615,6.615,0,0,1,110.441,321.272Z" transform="translate(-91.429 -279.103)" fill="#fff"/>
          </g>
        </g>
      </g>
      <g id="Group_34" data-name="Group 34" transform="translate(5331.484 1144.051)">
        <circle id="Ellipse_20" data-name="Ellipse 20" cx="76.5" cy="76.5" r="76.5" transform="translate(-0.484 -0.051)" fill="#ff9a19"/>
        <path id="Icon_awesome-award" data-name="Icon awesome-award" d="M11.157,41.659c-1-1-.478-.717-2.886-1.361a8.288,8.288,0,0,1-2.921-1.53L.138,51.546a1.838,1.838,0,0,0,1.773,2.531l6.053-.231,4.163,4.4a1.838,1.838,0,0,0,3.036-.57l5.979-14.661a8.244,8.244,0,0,1-9.985-1.354Zm32.818,9.888L38.763,38.767a8.27,8.27,0,0,1-2.921,1.53c-2.42.648-1.89.365-2.886,1.361a8.246,8.246,0,0,1-9.986,1.354l5.979,14.661a1.838,1.838,0,0,0,3.036.57l4.164-4.4,6.053.231a1.839,1.839,0,0,0,1.773-2.531ZM30.213,39.059c1.755-1.786,1.956-1.632,4.456-2.314a4.668,4.668,0,0,0,3.271-3.329c.859-3.263.636-2.869,2.981-5.256a4.766,4.766,0,0,0,1.2-4.547c-.858-3.26-.859-2.805,0-6.069A4.766,4.766,0,0,0,40.921,13C38.576,10.611,38.8,11,37.94,7.742a4.668,4.668,0,0,0-3.271-3.329c-3.2-.874-2.817-.646-5.164-3.034A4.571,4.571,0,0,0,25.038.16c-3.2.873-2.755.874-5.962,0a4.568,4.568,0,0,0-4.468,1.219c-2.345,2.387-1.959,2.16-5.163,3.034A4.668,4.668,0,0,0,6.175,7.742C5.317,11,5.538,10.611,3.194,13A4.763,4.763,0,0,0,2,17.545c.858,3.258.859,2.8,0,6.068a4.768,4.768,0,0,0,1.2,4.548c2.345,2.387,2.122,1.993,2.981,5.256a4.668,4.668,0,0,0,3.271,3.329c2.571.7,2.763.59,4.455,2.314a4.565,4.565,0,0,0,5.714.669,4.558,4.558,0,0,1,4.886,0A4.564,4.564,0,0,0,30.213,39.059ZM11.219,20.214A10.839,10.839,0,1,1,22.057,31.245,10.936,10.936,0,0,1,11.219,20.214Z" transform="translate(53.559 47.04)" fill="#fff"/>
      </g>
      <path id="Path_49" data-name="Path 49" d="M195.741-1222.564l60.215-110.919H541.706" transform="translate(4723.727 2336.191)" fill="none" stroke="#f7295e" stroke-width="8"/>
      <text id="Snacks_4:30_-_5:00_pm" data-name="Snacks
4:30 - 5:00 pm" transform="translate(4992.579 941)" fill="#160e0e" font-size="29" font-family="Montserrat-Medium, Montserrat" font-weight="500"><tspan x="0" y="0">Snacks</tspan><tspan font-family="Montserrat-Bold, Montserrat" font-weight="700"><tspan x="0" y="37">4:30 - 5:00 pm</tspan></tspan></text>
      <path id="Path_51" data-name="Path 51" d="M195.741-1222.564l60.215-110.919H541.706" transform="translate(5211.457 2336.191)" fill="none" stroke="#ff9a19" stroke-width="8"/>
      <text id="Valedictory_Ceremony_7:00_pm" data-name="Valedictory Ceremony
7:00 pm" transform="translate(5467.905 941)" fill="#160e0e" font-size="29" font-family="Montserrat-Medium, Montserrat" font-weight="500"><tspan x="0" y="0">Valedictory Ceremony</tspan><tspan font-family="Montserrat-Bold, Montserrat" font-weight="700"><tspan x="0" y="37">7:00 pm</tspan></tspan></text>
      <path id="Path_50" data-name="Path 50" d="M533.915-1333.483l-58.859,89.89H195.741" transform="translate(4630.463 2656.955)" fill="none" stroke="#a41be4" stroke-width="8"/>
      <text id="Pitching_Sessions_5:00_-_7:00_pm" data-name="Pitching Sessions
5:00 - 7:00 pm" transform="translate(4825.19 1470)" fill="#160e0e" font-size="29" font-family="Montserrat-Medium, Montserrat" font-weight="500"><tspan x="0" y="0">Pitching Sessions</tspan><tspan font-family="Montserrat-Bold, Montserrat" font-weight="700"><tspan x="0" y="38">5:00 - 7:00 pm</tspan></tspan></text>
      <g id="Group_31" data-name="Group 31" transform="translate(4599.605 1144.051)">
        <circle id="Ellipse_17" data-name="Ellipse 17" cx="76.5" cy="76.5" r="76.5" transform="translate(0.394 -0.051)" fill="#ff9a19"/>
        <path id="laptop-3" data-name="laptop" d="M1.465,73.264H63.63A1.465,1.465,0,0,0,65.094,71.8V70.481c0-.022.007-.042.007-.065a1.457,1.457,0,0,0-.159-.664l-6.357-16V23.986a1.465,1.465,0,0,0-1.465-1.465H7.974a1.465,1.465,0,0,0-1.465,1.465V53.751L.1,69.876a1.473,1.473,0,0,0-.066.22c0,.019-.007.038-.011.057A1.439,1.439,0,0,0,0,70.411s0,0,0,.006V71.8A1.465,1.465,0,0,0,1.465,73.264Zm24.783-4.727,1.34-4.144h9.919l1.34,4.144ZM10.816,26.258H54.279v25.5H10.816Z" transform="translate(40.839 27.103)" fill="#fff"/>
      </g>
      <g id="Group_30" data-name="Group 30" transform="translate(4357.409 1144.051)">
        <circle id="Ellipse_16" data-name="Ellipse 16" cx="76.5" cy="76.5" r="76.5" transform="translate(-0.409 -0.051)" fill="#a41be4"/>
        <g id="snacks-for-watch-sportive-game-of-rugby-4" data-name="snacks-for-watch-sportive-game-of-rugby" transform="translate(43.959 47.786)">
          <g id="Group_10-4" data-name="Group 10" transform="translate(0 0)">
            <path id="Path_27-4" data-name="Path 27" d="M4.718,66.665H20.275a13.192,13.192,0,0,1-4.417-6.288,6.062,6.062,0,0,1-4.4-6.115c0-3.178,2.078-5.8,4.75-6.175,1.805-4.272,5.3-7.175,9.308-7.178l1.218-15.182h1.709V22.259H14.849c-.041-5.242,3.615-9.546,9.015-9.574a1.111,1.111,0,0,0,0-2.22c-6.583.034-11.3,5.341-11.234,11.793H0v3.468H1.706Z" transform="translate(0 -10.465)" fill="#fff"/>
            <path id="Path_28-4" data-name="Path 28" d="M145.924,405.567a6.413,6.413,0,0,0,2.03.345H169.27c3.2,0,6-2.415,7.48-5.977H140.474A9.523,9.523,0,0,0,145.924,405.567Z" transform="translate(-122.432 -349.912)" fill="#fff"/>
            <path id="Path_29-4" data-name="Path 29" d="M150.041,268.293h28.983c-1.554-3.085-4.149-5.113-7.088-5.113H150.62c-.058,0-.113.01-.169.012-2.868.077-5.4,2.077-6.917,5.1h6.507Z" transform="translate(-125.099 -230.722)" fill="#fff"/>
            <path id="Path_30-4" data-name="Path 30" d="M109.047,318.691h-.764a2.86,2.86,0,0,0-.29.037,2.825,2.825,0,0,0-1.145.375,4.357,4.357,0,0,0-1.946,3.8,4.435,4.435,0,0,0,1.736,3.655,2.94,2.94,0,0,0,1.118.488,2.69,2.69,0,0,0,.528.066h38.651a2.661,2.661,0,0,0,.527-.066,2.92,2.92,0,0,0,1.118-.487,4.432,4.432,0,0,0,1.737-3.656,4.355,4.355,0,0,0-1.949-3.8,2.844,2.844,0,0,0-1.145-.374,2.8,2.8,0,0,0-.288-.037H109.047Zm1.394,2.581a5.4,5.4,0,0,1,4.269.126,8.726,8.726,0,0,1,1.227.7c1.023.642,2.121,1.274,3.389.429a6.217,6.217,0,0,1,2.2-1.141,5.692,5.692,0,0,1,4.361.674c2.379,1.578,4.45,2,6.929.339,1.054-.707,2.336-1.615,3.687-1.546a9.762,9.762,0,0,1,4.441,1.506c1.71,1,2.669.98,4.054-.055.212-.159.431-.336.666-.542a.9.9,0,0,1,1.111-.072,1.089,1.089,0,0,1,.187.134.79.79,0,0,1,.111,1.059.834.834,0,0,1-.125.164l-.088.072a10.187,10.187,0,0,1-1.878,1.33,4.2,4.2,0,0,1-4.461-.233c-2.148-1.252-4.039-2.1-6.3-.58a8.442,8.442,0,0,1-3.971,1.764,7.042,7.042,0,0,1-4.7-1.4c-2.743-1.817-4.35-.151-6.86.837-1.233.484-2.064-.139-2.907-.773a6.024,6.024,0,0,0-1.267-.8c-1.865-.772-3.171-.619-4.362.286a7.952,7.952,0,0,0-1.455,1.491.843.843,0,0,1-.223.192.766.766,0,0,1-.133.072.8.8,0,0,1-.911-.345.97.97,0,0,1-.066-1.1c.02-.034.025-.067.049-.1.237-.305.482-.593.733-.858.075-.078.154-.139.229-.214A6.615,6.615,0,0,1,110.441,321.272Z" transform="translate(-91.429 -279.103)" fill="#fff"/>
          </g>
        </g>
      </g>
      <text id="Lunch_2:00_-_3:00_pm" data-name="Lunch
2:00 - 3:00 pm" transform="translate(4503.578 941)" fill="#160e0e" font-size="29" font-family="Montserrat-Medium, Montserrat" font-weight="500"><tspan x="0" y="0">Lunch</tspan><tspan font-family="Montserrat-Bold, Montserrat" font-weight="700"><tspan x="0" y="37">2:00 - 3:00 pm</tspan></tspan></text>
      <path id="Path_48" data-name="Path 48" d="M533.915-1333.483l-58.859,89.89H195.741" transform="translate(4143.53 2656.955)" fill="none" stroke="#ff9a19" stroke-width="8"/>
      <text id="Hack_Like_A_Girl_3:00_-_4:30_pm" data-name="Hack Like A Girl
3:00 - 4:30 pm" transform="translate(4361.441 1470)" fill="#160e0e" font-size="29" font-family="Montserrat-Medium, Montserrat" font-weight="500"><tspan x="0" y="0">Hack Like A Girl</tspan><tspan font-family="Montserrat-Bold, Montserrat" font-weight="700"><tspan x="0" y="38">3:00 - 4:30 pm</tspan></tspan></text>
      <path id="Path_43" data-name="Path 43" d="M195.741-1222.564l60.215-110.919H541.707" transform="translate(3738.46 2335.906)" fill="none" stroke="#ff9a19" stroke-width="8"/>
      <text id="Hack_Like_A_Girl_11:00_pm" data-name="Hack Like A Girl
11:00 pm" transform="translate(3995.4 941)" fill="#160e0e" font-size="29" font-family="Montserrat-Medium, Montserrat" font-weight="500"><tspan x="0" y="0">Hack Like A Girl</tspan><tspan font-family="Montserrat-Bold, Montserrat" font-weight="700"><tspan x="0" y="37">11:00 pm</tspan></tspan></text>
      <path id="Path_46" data-name="Path 46" d="M533.915-1333.483l-58.859,89.89H195.741" transform="translate(3666.363 2661.197)" fill="none" stroke="#f7295e" stroke-width="8"/>
      <text id="Review_2_12:00_-_2:00_pm" data-name="Review 2
12:00 - 2:00 pm" transform="translate(3868.405 1471)" fill="#160e0e" font-size="30" font-family="Montserrat-Medium, Montserrat" font-weight="500"><tspan x="0" y="0">Review 2</tspan><tspan font-family="Montserrat-Bold, Montserrat" font-weight="700"><tspan x="0" y="38">12:00 - 2:00 pm</tspan></tspan></text>
      <g id="Group_28" data-name="Group 28" transform="translate(3869.843 1145.109)">
        <ellipse id="Ellipse_14" data-name="Ellipse 14" cx="76.5" cy="77.5" rx="76.5" ry="77.5" transform="translate(0.157 -0.109)" fill="#ff9a19"/>
        <path id="laptop-4" data-name="laptop" d="M1.465,73.264H63.63A1.465,1.465,0,0,0,65.094,71.8V70.481c0-.022.007-.042.007-.065a1.457,1.457,0,0,0-.159-.664l-6.357-16V23.986a1.465,1.465,0,0,0-1.465-1.465H7.974a1.465,1.465,0,0,0-1.465,1.465V53.751L.1,69.876a1.473,1.473,0,0,0-.066.22c0,.019-.007.038-.011.057A1.439,1.439,0,0,0,0,70.411s0,0,0,.006V71.8A1.465,1.465,0,0,0,1.465,73.264Zm24.783-4.727,1.34-4.144h9.919l1.34,4.144ZM10.816,26.258H54.279v25.5H10.816Z" transform="translate(43.557 28.551)" fill="#fff"/>
      </g>
      <g id="Group_27" data-name="Group 27" transform="translate(3627.647 1145.109)">
        <g id="Group_26" data-name="Group 26" transform="translate(0)">
          <ellipse id="Ellipse_13" data-name="Ellipse 13" cx="76" cy="77.5" rx="76" ry="77.5" transform="translate(0.353 -0.109)" fill="#a41be4"/>
        </g>
        <g id="group" transform="translate(44.079 59.685)">
          <ellipse id="Ellipse_7" data-name="Ellipse 7" cx="6.004" cy="6.004" rx="6.004" ry="6.004" transform="translate(46.967 3.773)" fill="#fff"/>
          <ellipse id="Ellipse_8" data-name="Ellipse 8" cx="6.004" cy="6.004" rx="6.004" ry="6.004" transform="translate(4.878 3.773)" fill="#fff"/>
          <path id="Path_33" data-name="Path 33" d="M344.4,251.348a10.829,10.829,0,0,0-7.088,2.63,18.718,18.718,0,0,1,4.391,8.252h13.58A10.882,10.882,0,0,0,344.4,251.348Z" transform="translate(-291.428 -231.486)" fill="#fff"/>
          <path id="Path_34" data-name="Path 34" d="M140.753,255.335a14.793,14.793,0,0,0-14.793,14.793h29.586A14.793,14.793,0,0,0,140.753,255.335Z" transform="translate(-108.826 -234.931)" fill="#fff"/>
          <path id="Path_35" data-name="Path 35" d="M10.882,251.348A10.882,10.882,0,0,0,0,262.23H13.58a18.716,18.716,0,0,1,4.391-8.252A10.83,10.83,0,0,0,10.882,251.348Z" transform="translate(0 -231.486)" fill="#fff"/>
          <ellipse id="Ellipse_9" data-name="Ellipse 9" cx="8.162" cy="8.162" rx="8.162" ry="8.162" transform="translate(23.765 0)" fill="#fff"/>
        </g>
      </g>
      <g id="Group_29" data-name="Group 29" transform="translate(4114.155 1145.109)">
        <ellipse id="Ellipse_15" data-name="Ellipse 15" cx="77" cy="77.5" rx="77" ry="77.5" transform="translate(-0.155 -0.109)" fill="#f7295e"/>
        <g id="chat-2" data-name="chat" transform="translate(48.929 51.294)">
          <path id="Path_20-2" data-name="Path 20" d="M38.785,55.368A11.174,11.174,0,1,0,27.611,44.193,11.186,11.186,0,0,0,38.785,55.368Z" transform="translate(-23.533 -28.125)" fill="#fff"/>
          <path id="Path_21-2" data-name="Path 21" d="M28.759,204.782A3.546,3.546,0,0,0,25.378,202H5.327a3.546,3.546,0,0,0-3.381,2.783L.167,213.8A4.613,4.613,0,0,0,1.8,218.051c.317.238,7.828,5.832,13.556,5.832s13.24-5.594,13.557-5.832a4.612,4.612,0,0,0,1.629-4.253Z" transform="translate(-0.102 -172.057)" fill="#fff"/>
          <path id="Path_22-2" data-name="Path 22" d="M173.923,0H149.364a2.907,2.907,0,0,0-2.082.875A1.305,1.305,0,0,0,146.94,2a1.327,1.327,0,0,0,.814.966c4.975,2.376,7.828,7.151,7.828,13.1a16.414,16.414,0,0,1-2.208,7.793,1.64,1.64,0,0,0-.134,1.575,1.2,1.2,0,0,0,1.1.549,2.358,2.358,0,0,0,.44-.044,1.514,1.514,0,0,1,1.418,1.492v2.492c0,1.359.78,1.967,1.552,1.967a2.218,2.218,0,0,0,1.381-.566l5.124-4.149a6.677,6.677,0,0,1,3.485-1.238h6.181a3.032,3.032,0,0,0,3.03-2.953V2.979A3.045,3.045,0,0,0,173.923,0Z" transform="translate(-125.157)" fill="#fff"/>
        </g>
      </g>
      <path id="Path_47" data-name="Path 47" d="M195.741-1222.564l60.215-110.919H541.706" transform="translate(4237.704 2336.191)" fill="none" stroke="#a41be4" stroke-width="8"/>
      <path id="Path_42" data-name="Path 42" d="M195.741-1222.564l60.215-110.919H541.706" transform="translate(3259.219 2342.253)" fill="none" stroke="#f7295e" stroke-width="8"/>
      <text id="Break_6:00_-_10:00_am" data-name="Break
6:00 - 10:00 am" transform="translate(3529.737 942)" fill="#160e0e" font-size="29" font-family="Montserrat-Medium, Montserrat" font-weight="500"><tspan x="0" y="0">Break</tspan><tspan font-family="Montserrat-Bold, Montserrat" font-weight="700"><tspan x="0" y="36">6:00 - 10:00 am</tspan></tspan></text>
      <path id="Path_45" data-name="Path 45" d="M533.915-1333.483l-58.859,89.89H195.741" transform="translate(3122.547 2659.082)" fill="none" stroke="#a41be4" stroke-width="8"/>
      <text id="Participants_Reassemble_10:00_-_11:00_am" data-name="Participants Reassemble
10:00 - 11:00 am" transform="translate(3319.896 1471)" fill="#160e0e" font-size="30" font-family="Montserrat-Medium, Montserrat" font-weight="500"><tspan x="0" y="0">Participants Reassemble</tspan><tspan font-family="Montserrat-Bold, Montserrat" font-weight="700"><tspan x="0" y="38">10:00 - 11:00 am</tspan></tspan></text>
      <g id="Group_25" data-name="Group 25" transform="translate(3385.45 1145.109)">
        <ellipse id="Ellipse_12" data-name="Ellipse 12" cx="76.5" cy="77.5" rx="76.5" ry="77.5" transform="translate(-0.45 -0.109)" fill="#f7295e"/>
        <text id="_" data-name="\" transform="translate(65.55 95.891)" fill="#fff" font-size="52" font-family="Montserrat-Bold, Montserrat" font-weight="700"><tspan x="0" y="0">\</tspan></text>
      </g>
      <g id="Icon_feather-scissors" data-name="Icon feather-scissors" transform="translate(1998.819 1190.955)">
        <path id="Path_52" data-name="Path 52" d="M17.863,11.182A6.682,6.682,0,1,1,11.182,4.5,6.682,6.682,0,0,1,17.863,11.182Z" fill="none" stroke="#fff" stroke-linecap="round" stroke-linejoin="round" stroke-width="6"/>
        <path id="Path_53" data-name="Path 53" d="M17.863,29.182A6.682,6.682,0,1,1,11.182,22.5,6.682,6.682,0,0,1,17.863,29.182Z" transform="translate(0 8.726)" fill="none" stroke="#fff" stroke-linecap="round" stroke-linejoin="round" stroke-width="6"/>
        <path id="Path_54" data-name="Path 54" d="M38.639,6,12.18,32.459" transform="translate(3.723 0.727)" fill="none" stroke="#fff" stroke-linecap="round" stroke-linejoin="round" stroke-width="6"/>
        <path id="Path_55" data-name="Path 55" d="M21.705,21.72,34.021,34.014" transform="translate(8.341 8.348)" fill="none" stroke="#fff" stroke-linecap="round" stroke-linejoin="round" stroke-width="6"/>
        <path id="Path_56" data-name="Path 56" d="M12.18,12.18l8.642,8.642" transform="translate(3.723 3.723)" fill="none" stroke="#fff" stroke-linecap="round" stroke-linejoin="round" stroke-width="6"/>
      </g>
    </g>
  </g>
</svg>
